<?xml version="1.0" encoding="UTF-8" standalone="no"?>
<svg
   height="16px"
   viewBox="0 0 16 16"
   width="16px"
   version="1.1"
   id="svg4"
   sodipodi:docname="threshold-inactive.svg"
   inkscape:version="1.1.2 (0a00cf5339, 2022-02-04)"
   xmlns:inkscape="http://www.inkscape.org/namespaces/inkscape"
   xmlns:sodipodi="http://sodipodi.sourceforge.net/DTD/sodipodi-0.dtd"
   xmlns="http://www.w3.org/2000/svg"
   xmlns:svg="http://www.w3.org/2000/svg">
  <defs
     id="defs8" />
  <sodipodi:namedview
     id="namedview6"
     pagecolor="#505050"
     bordercolor="#eeeeee"
     borderopacity="1"
     inkscape:pageshadow="0"
     inkscape:pageopacity="0"
     inkscape:pagecheckerboard="0"
     showgrid="false"
     inkscape:zoom="29"
     inkscape:cx="8"
     inkscape:cy="8"
     inkscape:window-width="1366"
     inkscape:window-height="699"
     inkscape:window-x="0"
     inkscape:window-y="0"
     inkscape:window-maximized="1"
     inkscape:current-layer="svg4" />
  <path
     d="M 7,0 C 6,0 6,1 6,1 V 2 H 5 C 5,2 4.292969,1.984375 3.550781,2.355469 2.8125,2.726562 2,3.667969 2,5 v 8 C 2,13 1.984375,13.707031 2.355469,14.445312 2.726562,15.1875 3.667969,16 5,16 h 6 c 0,0 0.707031,0.01563 1.449219,-0.355469 C 13.1875,15.273438 14,14.332031 14,13 V 5 C 14,3.667969 13.1875,2.726562 12.449219,2.355469 11.707031,1.984375 11,2 11,2 H 10 V 1 C 10,0 9,0 9,0 Z m 4,4 c 0.554688,0 1,0.445312 1,1 v 8 c 0,0.554688 -0.445312,1 -1,1 H 5 C 4.445312,14 4,13.554688 4,13 V 5 C 4,4.445312 4.445312,4 5,4 Z"
     fill="#2e3434"
     id="path2"
     style="fill:#e01b24;fill-opacity:1"
     sodipodi:nodetypes="sccccsccsccsscccscssssssssss" />
  <path
     id="rect847"
     style="fill:#e01b24;fill-opacity:1;stroke:none;stroke-width:0.9"
     d="M 7.1,5 V 9.4999998 C 7.09297,9.9746097 7.5253904,10.400001 8,10.400001 c 0.4746096,0 0.907029,-0.4253913 0.9,-0.9000012 V 5 Z M 8,11.3 c -0.4957029,0 -0.9,0.404297 -0.9,0.9 0,0.495703 0.4042971,0.9 0.9,0.9 0.4957029,0 0.9,-0.404297 0.9,-0.9 0,-0.495703 -0.4042971,-0.9 -0.9,-0.9 z"
     sodipodi:nodetypes="ccscccsssss" />
</svg>
