<?xml version="1.0" encoding="UTF-8" standalone="no"?>
<svg
   height="16px"
   viewBox="0 0 16 16"
   width="16px"
   version="1.1"
   id="svg4"
   sodipodi:docname="threshold-active.svg"
   inkscape:version="1.2 (dc2aedaf03, 2022-05-15)"
   xmlns:inkscape="http://www.inkscape.org/namespaces/inkscape"
   xmlns:sodipodi="http://sodipodi.sourceforge.net/DTD/sodipodi-0.dtd"
   xmlns="http://www.w3.org/2000/svg"
   xmlns:svg="http://www.w3.org/2000/svg">
  <defs
     id="defs8" />
  <sodipodi:namedview
     id="namedview6"
     pagecolor="#505050"
     bordercolor="#eeeeee"
     borderopacity="1"
     inkscape:pageshadow="0"
     inkscape:pageopacity="0"
     inkscape:pagecheckerboard="0"
     showgrid="false"
     inkscape:zoom="21.152521"
     inkscape:cx="8.7696401"
     inkscape:cy="6.1458395"
     inkscape:window-width="1366"
     inkscape:window-height="699"
     inkscape:window-x="0"
     inkscape:window-y="0"
     inkscape:window-maximized="1"
     inkscape:current-layer="svg4"
     inkscape:showpageshadow="0"
     inkscape:deskcolor="#505050" />
  <path
     d="M 7,0 C 6,0 6,1 6,1 V 2 H 5 C 5,2 4.292969,1.984375 3.550781,2.355469 2.8125,2.726562 2,3.667969 2,5 v 8 C 2,13 1.984375,13.707031 2.355469,14.445312 2.726562,15.1875 3.667969,16 5,16 h 6 c 0,0 0.707031,0.01563 1.449219,-0.355469 C 13.1875,15.273438 14,14.332031 14,13 V 5 C 14,3.667969 13.1875,2.726562 12.449219,2.355469 11.707031,1.984375 11,2 11,2 H 10 V 1 C 10,0 9,0 9,0 Z m 4,4 c 0.554688,0 1,0.445312 1,1 v 8 c 0,0.554688 -0.445312,1 -1,1 H 5 C 4.445312,14 4,13.554688 4,13 V 5 C 4,4.445312 4.445312,4 5,4 Z"
     fill="#2e3434"
     id="path2"
     style="fill:#33d17a;fill-opacity:1"
     sodipodi:nodetypes="sccccsccsccsscccscssssssssss" />
  <path
     d="M 11.5,7.6665023 A 1.8814995,1.8814995 0 0 0 9.6150005,5.7880035 c -0.6849999,0 -1.2850011,0.3649993 -1.6150015,0.910999 A 1.8849995,1.8849995 0 0 0 6.384997,5.7880035 1.8814995,1.8814995 0 0 0 4.5000003,7.6665023 1.8699996,1.8699996 0 0 0 5.095,9.0355003 H 5.0944993 L 7.9570006,11.783506 10.906,9.0355003 h -0.0012 a 1.8695001,1.8695001 0 0 0 0.595,-1.368998"
     fill="#474747"
     id="path2-6"
     style="fill:#33d17a;fill-opacity:1;stroke-width:0.499998" />
</svg>
